<mxfile host="app.diagrams.net" agent="Mozilla/5.0 (iPad; CPU OS 17_7_0 like Mac OS X) AppleWebKit/605.1.15 (KHTML, like Gecko) CriOS/131.0.6778.73 Mobile/15E148 Safari/604.1" version="24.8.6">
  <diagram name="Page-1" id="Hnxu8_8Ku-TV39dNuLR_">
    <mxGraphModel dx="1518" dy="1206" grid="1" gridSize="10" guides="1" tooltips="1" connect="1" arrows="1" fold="1" page="0" pageScale="1" pageWidth="827" pageHeight="1169" math="0" shadow="0">
      <root>
        <mxCell id="0" />
        <mxCell id="1" parent="0" />
        <mxCell id="Uhq6O7xmegFHdYGJgDLc-4" value="" style="edgeStyle=orthogonalEdgeStyle;rounded=0;orthogonalLoop=1;jettySize=auto;html=1;" edge="1" parent="1" source="AM7LQ0HO90xgIuVz8iBt-13" target="Uhq6O7xmegFHdYGJgDLc-3">
          <mxGeometry relative="1" as="geometry" />
        </mxCell>
        <mxCell id="AM7LQ0HO90xgIuVz8iBt-13" value="SATRT" style="strokeWidth=2;html=1;shape=mxgraph.flowchart.terminator;whiteSpace=wrap;" parent="1" vertex="1">
          <mxGeometry x="-410" y="-630" width="140" height="60" as="geometry" />
        </mxCell>
        <mxCell id="AM7LQ0HO90xgIuVz8iBt-18" value="STOP" style="strokeWidth=2;html=1;shape=mxgraph.flowchart.terminator;whiteSpace=wrap;" parent="1" vertex="1">
          <mxGeometry x="-410" y="-320" width="140" height="60" as="geometry" />
        </mxCell>
        <mxCell id="Uhq6O7xmegFHdYGJgDLc-6" value="" style="edgeStyle=orthogonalEdgeStyle;rounded=0;orthogonalLoop=1;jettySize=auto;html=1;" edge="1" parent="1" source="Uhq6O7xmegFHdYGJgDLc-2" target="AM7LQ0HO90xgIuVz8iBt-18">
          <mxGeometry relative="1" as="geometry" />
        </mxCell>
        <mxCell id="Uhq6O7xmegFHdYGJgDLc-2" value="แสดง &amp;nbsp;Hello World." style="shape=parallelogram;perimeter=parallelogramPerimeter;whiteSpace=wrap;html=1;fixedSize=1;" vertex="1" parent="1">
          <mxGeometry x="-435" y="-420" width="190" height="60" as="geometry" />
        </mxCell>
        <mxCell id="Uhq6O7xmegFHdYGJgDLc-5" value="" style="edgeStyle=orthogonalEdgeStyle;rounded=0;orthogonalLoop=1;jettySize=auto;html=1;" edge="1" parent="1" source="Uhq6O7xmegFHdYGJgDLc-3" target="Uhq6O7xmegFHdYGJgDLc-2">
          <mxGeometry relative="1" as="geometry" />
        </mxCell>
        <mxCell id="Uhq6O7xmegFHdYGJgDLc-3" value="สั่งงานแสดงค่า &quot;Hello World.&quot;" style="rounded=0;whiteSpace=wrap;html=1;" vertex="1" parent="1">
          <mxGeometry x="-420" y="-530" width="160" height="60" as="geometry" />
        </mxCell>
      </root>
    </mxGraphModel>
  </diagram>
</mxfile>
